PathFileType	4	(X/Y/Z)	C:\Users\s5001683\Documents\PhD\FASHiON\BaselineData\3. CleanedGaitData\ElaboratedData\FAS-906\Session 1\staticElaborations\StaticCalibration\Static\\StaticCalibration.trc
DataRate	CameraRate	NumFrames	NumMarkers	Units	OrigDataRate	DataStartFrame
120	120	4	90	mm	120	2
Frame#	Time	RFHD			LFHD			RBHD			LBHD			C7			T10			CLAV			STRN			RASI			LASI			RPSI			LPSI			RTH1			RTH2			RTH3			RTH4			RTH5			RTH6			RMFC			RLFC			RTB1			RTB2			RTB3			RTB4			RTB5			RTB6			RMMAL			RLMAL			RCAL			RMT1			RMT23			RMT5			LMT1			LMT23			LMT5			LCAL			LMMAL			LLMAL			LTB1			LTB2			LTB3			LTB4			LTB5			LTB6			LMFC			LLFC			LTH1			LTH2			LTH3			LTH4			LTH5			LTH6			LACR			LASH			LPSH			LUA1			LUA2			LUA3			LMEL			LLEL			LFA1			LFA3			LFA2			LWRU			LWRR			RACR			RASH			RPSH			RUA1			RUA2			RUA3			RMEL			RLEL			RFA1			RFA2			RFA3			RWRU			RWRR			LAJC			RAJC			LEJC			REJC			LHJC			RHJC			LKJC			RKJC			LSJC			RSJC			LWJC			RWJC		
		X1	Y1	Z1	X2	Y2	Z2	X3	Y3	Z3	X4	Y4	Z4	X5	Y5	Z5	X6	Y6	Z6	X7	Y7	Z7	X8	Y8	Z8	X9	Y9	Z9	X10	Y10	Z10	X11	Y11	Z11	X12	Y12	Z12	X13	Y13	Z13	X14	Y14	Z14	X15	Y15	Z15	X16	Y16	Z16	X17	Y17	Z17	X18	Y18	Z18	X19	Y19	Z19	X20	Y20	Z20	X21	Y21	Z21	X22	Y22	Z22	X23	Y23	Z23	X24	Y24	Z24	X25	Y25	Z25	X26	Y26	Z26	X27	Y27	Z27	X28	Y28	Z28	X29	Y29	Z29	X30	Y30	Z30	X31	Y31	Z31	X32	Y32	Z32	X33	Y33	Z33	X34	Y34	Z34	X35	Y35	Z35	X36	Y36	Z36	X37	Y37	Z37	X38	Y38	Z38	X39	Y39	Z39	X40	Y40	Z40	X41	Y41	Z41	X42	Y42	Z42	X43	Y43	Z43	X44	Y44	Z44	X45	Y45	Z45	X46	Y46	Z46	X47	Y47	Z47	X48	Y48	Z48	X49	Y49	Z49	X50	Y50	Z50	X51	Y51	Z51	X52	Y52	Z52	X53	Y53	Z53	X54	Y54	Z54	X55	Y55	Z55	X56	Y56	Z56	X57	Y57	Z57	X58	Y58	Z58	X59	Y59	Z59	X60	Y60	Z60	X61	Y61	Z61	X62	Y62	Z62	X63	Y63	Z63	X64	Y64	Z64	X65	Y65	Z65	X66	Y66	Z66	X67	Y67	Z67	X68	Y68	Z68	X69	Y69	Z69	X70	Y70	Z70	X71	Y71	Z71	X72	Y72	Z72	X73	Y73	Z73	X74	Y74	Z74	X75	Y75	Z75	X76	Y76	Z76	X77	Y77	Z77	X78	Y78	Z78	X79	Y79	Z79	X80	Y80	Z80	X81	Y81	Z81	X82	Y82	Z82	X83	Y83	Z83	X84	Y84	Z84	X85	Y85	Z85	X86	Y86	Z86	X87	Y87	Z87	X88	Y88	Z88	X89	Y89	Z89	X90	Y90	Z90	

263	2.183333	769.797302	1615.861328	-187.989136	777.170105	1616.489990	-293.962158	624.880127	1545.031006	-183.177826	623.212830	1545.778076	-322.786957	602.919373	1420.643433	-251.176453	602.508606	1125.844360	-252.722824	742.972351	1352.031128	-246.310486	795.605286	1144.970947	-244.561203	765.632813	942.114685	-107.689011	765.446899	947.313599	-379.229553	594.094360	972.078430	-185.062408	592.930664	983.504822	-295.795166	729.866272	719.674805	-58.445427	765.895447	652.491638	-96.809464	713.517395	592.064270	-83.349960	803.032532	728.557129	-156.712387	768.446289	673.166626	-213.262939	779.510193	597.289856	-170.024612	662.173035	447.851501	-222.349243	690.877747	451.561768	-105.040657	684.140686	333.114532	-186.320740	693.065796	269.419220	-119.911842	674.643860	202.581909	-175.515671	656.170166	351.109070	-84.914925	600.088135	287.049500	-106.518745	654.682129	221.634232	-101.088745	649.305115	107.238899	-203.934357	634.128906	87.558014	-123.253632	577.692566	67.111855	-169.055298	783.024963	48.492626	-199.560669	790.515381	57.597656	-158.581589	770.373962	47.033875	-105.741409	777.218689	55.052963	-306.575989	781.508362	57.270718	-360.098572	754.098083	38.849667	-402.339935	573.660706	63.829323	-323.472809	644.658325	98.227394	-286.919098	625.587463	94.811440	-364.341766	694.608032	371.378937	-304.397247	709.397278	305.285217	-355.592041	675.693237	241.477234	-310.087463	656.376465	315.329102	-408.027802	599.747803	254.558868	-380.857239	648.346985	185.952698	-381.886902	665.441528	436.809113	-276.875244	677.475220	450.915100	-396.130646	675.650574	735.827087	-439.653381	733.482056	677.163208	-418.370728	687.424072	607.685608	-410.272919	783.125610	810.367615	-396.344940	799.688660	741.693359	-341.241302	772.614746	672.617188	-391.233032	673.880188	1403.883057	-389.111969	753.024780	1285.185547	-397.366302	602.472229	1246.565674	-385.879333	662.993774	1291.418091	-472.475922	736.942688	1290.205200	-513.420105	744.828003	1202.265991	-532.874329	815.014282	1131.375000	-528.863342	814.360413	1165.477661	-580.981567	894.457092	1107.210571	-645.251282	936.849915	1140.885132	-615.543152	899.126282	1145.233643	-629.215393	982.354248	1064.727173	-690.343384	1017.845947	1067.983154	-638.696533	641.410889	1397.134888	-107.186531	733.081055	1288.926025	-106.387535	597.240967	1243.730225	-102.694496	633.061707	1286.056885	-29.577288	699.893616	1294.035767	22.726576	707.859802	1212.431641	53.851917	770.583313	1124.054688	56.076054	779.071472	1173.429810	109.690285	881.107117	1098.271606	176.474380	884.532776	1142.516113	153.225082	921.915710	1135.270142	133.483734	951.014526	1066.369141	204.598007	998.022034	1085.412964	158.819534	635.122894	96.519417	-325.630432	641.717010	97.398457	-163.593994	814.687347	1148.426331	-554.922455	774.827393	1148.742249	82.883169	696.992665	865.697007	-341.867820	697.125362	861.986243	-148.053741	671.458374	443.862106	-336.502945	676.525391	449.706635	-163.694950	677.748505	1265.875610	-391.622818	665.161011	1266.328125	-104.541016	1000.100098	1066.355164	-664.519958	974.518280	1075.891052	181.708771	
264	2.191667	769.764160	1615.879150	-188.010269	777.164795	1616.491577	-293.990356	624.837708	1545.037354	-183.224335	623.145630	1545.785767	-322.462494	602.921875	1420.628784	-251.209534	602.526428	1125.839478	-252.737335	742.926514	1352.032349	-246.317871	795.611389	1144.996582	-244.551971	765.633728	942.094543	-107.694214	765.468567	947.281128	-379.238770	594.087769	972.109558	-184.992508	592.966675	983.500793	-295.757050	729.917847	719.659729	-58.433403	765.929260	652.491699	-96.813225	713.520508	592.057617	-83.342285	803.103271	728.586548	-156.737198	768.462952	673.179504	-213.242081	779.558533	597.294373	-170.027710	662.202454	447.846771	-222.335434	690.927734	451.556671	-105.056450	684.130066	333.111298	-186.303436	693.091431	269.420044	-119.879898	674.691162	202.609039	-175.528259	656.234802	351.095001	-84.892441	600.068481	287.070648	-106.552711	654.723694	221.627945	-101.077492	649.332764	107.242073	-203.937363	634.116882	87.580254	-123.256836	577.661377	67.141449	-169.009109	783.050781	48.490368	-199.586899	790.514832	57.618500	-158.568222	770.359192	47.049828	-105.742332	777.201294	55.033508	-306.555481	781.534302	57.297199	-360.104340	754.111328	38.850697	-402.347382	573.660278	63.825844	-323.474548	644.533813	98.175674	-286.913940	625.591980	94.810616	-364.339722	694.674377	371.384766	-304.366089	709.378723	305.240967	-355.557953	675.692627	241.500702	-310.077545	656.416931	315.317383	-408.009064	599.759644	254.559433	-380.801697	648.380676	185.953278	-381.855011	666.029602	436.833771	-276.622528	677.452942	450.924438	-396.104156	675.633240	735.888062	-439.586548	733.247375	676.554260	-417.842346	687.482849	607.671448	-410.263031	783.145264	810.344666	-396.286774	799.750366	741.681519	-341.224915	772.649963	672.631714	-391.258636	673.823181	1403.897461	-389.167114	753.035950	1285.177368	-397.348145	602.448364	1246.575562	-385.875549	662.957397	1291.409302	-472.392151	736.910828	1290.211548	-513.454651	744.884827	1202.283813	-532.887756	815.010315	1131.450684	-528.890991	814.424194	1165.491333	-581.016724	894.460632	1107.269287	-645.255493	936.864685	1140.946289	-615.513916	899.186401	1145.297119	-629.217163	982.397705	1064.813110	-690.361755	1017.907227	1068.061768	-638.710632	641.406433	1397.131470	-107.214943	733.080505	1288.925537	-106.386444	597.226746	1243.744873	-102.666328	633.108276	1286.000732	-29.693697	699.951904	1294.007446	22.754845	707.851746	1212.469971	53.872795	770.643127	1124.091797	56.023708	779.062805	1173.443115	109.713669	881.152344	1098.327637	176.479294	884.505615	1142.599976	153.263763	921.934937	1135.354980	133.485245	951.050232	1066.463989	204.646759	998.057678	1085.499390	158.890472	635.062897	96.493145	-325.626831	641.724823	97.411163	-163.597099	814.717255	1148.471008	-554.953857	774.852966	1148.767456	82.868689	696.991055	865.681424	-341.877599	697.108940	861.979464	-148.060858	671.741272	443.879105	-336.363342	676.565094	449.701721	-163.695942	677.742157	1265.876465	-391.611847	665.153625	1266.335205	-104.526386	1000.152466	1066.437439	-664.536194	974.553955	1075.981689	181.768616	
265	2.200000	769.747192	1615.909180	-188.034210	777.119446	1616.494873	-294.005280	624.825256	1545.036255	-183.193146	623.108826	1545.768799	-322.397491	602.901123	1420.666992	-251.231567	602.593750	1125.816528	-252.922028	742.937073	1352.038086	-246.325989	795.613220	1145.008667	-244.526428	765.680054	942.099548	-107.680359	765.496704	947.280151	-379.155670	594.086121	972.111328	-184.989304	592.963379	983.528870	-295.741455	729.927307	719.687988	-58.387043	765.955505	652.494995	-96.789139	713.577637	592.069946	-83.313530	803.112549	728.572510	-156.700012	768.486084	673.193787	-213.241180	779.617676	597.300476	-170.034973	662.184082	447.843872	-222.317444	690.915222	451.545319	-105.044662	684.172302	333.141418	-186.307632	693.094788	269.430359	-119.904297	674.635132	202.597626	-175.505890	656.237488	351.094391	-84.892151	600.110718	287.052429	-106.508987	654.709045	221.618317	-101.081055	649.310608	107.238571	-203.959152	634.121582	87.568375	-123.249611	577.685852	67.138313	-169.002884	783.113098	48.583092	-199.647934	790.523926	57.623585	-158.588776	770.373230	47.065685	-105.803360	777.209534	55.020313	-306.586243	781.544861	57.290733	-360.113312	754.087280	38.850246	-402.352386	573.670044	63.827839	-323.532928	644.534973	98.189110	-286.917328	625.566467	94.806976	-364.316284	694.675964	371.402802	-304.367004	709.412720	305.232422	-355.575317	675.693848	241.458313	-310.082428	656.415894	315.339020	-408.005981	599.741943	254.536499	-380.784912	648.347229	185.983856	-381.871490	665.616333	437.181946	-276.430298	677.533020	450.931854	-396.123108	675.625305	735.893494	-439.558899	733.215698	676.541931	-417.822266	687.576050	607.502075	-409.921783	783.139404	810.351685	-396.297974	799.730408	741.698975	-341.198029	772.642151	672.626343	-391.196045	673.872192	1403.876831	-389.111267	753.008423	1285.144653	-397.393250	602.470459	1246.572266	-385.880219	662.979004	1291.422119	-472.426819	736.847595	1290.223633	-513.380188	744.903198	1202.282471	-532.924011	815.029663	1131.451538	-528.911011	814.419800	1165.511475	-581.011597	894.501404	1107.296997	-645.245850	936.906250	1140.972778	-615.491028	899.170044	1145.367798	-629.172852	982.445129	1064.856567	-690.338379	1017.899902	1068.143921	-638.829590	641.401184	1397.144043	-107.213821	733.084229	1288.939819	-106.392792	597.214233	1243.762695	-102.638496	633.073669	1286.026611	-29.651094	699.950745	1294.024292	22.742424	707.902344	1212.485107	53.882755	770.633850	1124.119629	56.074986	779.062439	1173.455811	109.715576	881.143311	1098.395630	176.509720	884.530151	1142.667847	153.292953	921.950134	1135.447388	133.565125	951.076904	1066.517212	204.669388	998.087646	1085.589844	158.927628	635.050720	96.498043	-325.616806	641.716095	97.403473	-163.604382	814.724731	1148.481506	-554.961304	774.848145	1148.787720	82.895281	697.014125	865.705199	-341.799825	697.144994	862.007438	-148.028781	671.574677	444.056900	-336.276703	676.549652	449.694595	-163.681053	677.739441	1265.858459	-391.636734	665.149231	1266.351257	-104.515644	1000.172516	1066.500244	-664.583984	974.582275	1076.053528	181.798508	
266	2.208333	769.697327	1615.895630	-188.057968	777.074341	1616.507813	-294.028107	624.774536	1545.042725	-183.240341	623.128601	1545.781860	-322.481079	602.900513	1420.647339	-251.241119	602.526855	1125.797241	-252.706924	742.931091	1352.043335	-246.339905	795.606689	1145.025391	-244.493729	765.736694	942.115051	-107.645660	765.490173	947.278809	-379.154327	594.119141	972.094727	-184.938965	592.940613	983.513062	-295.661957	730.009949	719.667603	-58.438793	766.045532	652.482361	-96.834900	713.671021	592.076843	-83.325851	803.108582	728.589539	-156.711121	768.515320	673.163635	-213.241425	779.652161	597.323853	-170.074570	662.208801	447.860199	-222.291809	690.975708	451.544250	-105.026932	684.189087	333.097900	-186.297562	693.126038	269.413300	-119.906563	674.653015	202.587204	-175.519638	656.268066	351.086334	-84.839615	600.137390	287.065399	-106.507866	654.703247	221.629745	-101.043495	649.308472	107.235573	-203.951553	634.120789	87.645874	-123.219124	577.683594	67.083405	-169.009491	782.959412	48.469105	-199.541748	790.512024	57.624191	-158.592422	770.375183	47.066322	-105.780090	777.218384	55.026882	-306.595428	781.567383	57.263340	-360.126160	754.102295	38.849773	-402.360596	573.664063	63.822807	-323.487427	644.545044	98.185379	-286.912933	625.564514	94.797211	-364.307251	694.654419	371.374298	-304.338867	709.492126	305.290924	-355.559082	675.726929	241.499496	-310.060608	656.417603	315.310059	-408.001831	599.736938	254.579361	-380.747375	648.400452	186.005997	-381.858337	666.023132	436.895294	-276.446472	677.527100	450.938629	-396.101410	675.604858	735.881226	-439.536591	733.459045	677.184143	-418.426361	687.476074	607.674072	-410.176666	783.140198	810.362122	-396.306213	799.729370	741.676575	-341.202820	772.646667	672.626404	-391.211304	673.788574	1403.890747	-389.184235	753.021973	1285.140259	-397.301636	602.417786	1246.553101	-385.870514	662.989258	1291.430664	-472.421722	736.864136	1290.272583	-513.394653	744.886597	1202.294556	-532.891479	815.090454	1131.505005	-528.950012	814.429993	1165.561523	-581.042603	894.535461	1107.357056	-645.307190	936.924316	1141.037842	-615.504822	899.192505	1145.403198	-629.209717	982.486084	1064.923584	-690.366943	1017.954285	1068.178711	-638.852356	641.391663	1397.156006	-107.217606	733.122803	1288.957031	-106.344345	597.213745	1243.763184	-102.637306	633.037109	1286.047607	-29.527403	699.995239	1293.961182	22.654568	707.899719	1212.526855	53.936455	770.669067	1124.141479	56.122169	779.097351	1173.511475	109.764694	881.171265	1098.466797	176.516068	884.569763	1142.723633	153.266922	921.986023	1135.517578	133.558990	951.122742	1066.590454	204.707474	998.110962	1085.666016	158.949661	635.054779	96.491295	-325.610092	641.714630	97.440723	-163.585339	814.760223	1148.533264	-554.996307	774.883209	1148.826477	82.943432	697.023007	865.686666	-341.772059	697.198964	862.000963	-147.978984	671.775116	443.916962	-336.273941	676.592255	449.702225	-163.659370	677.719879	1265.846680	-391.586075	665.168274	1266.360107	-104.490826	1000.220184	1066.551147	-664.609650	974.616852	1076.128235	181.828568	
